<svg width="125.018311" height="82.971924" viewBox="0 0 125.018 82.9719" fill="none" xmlns="http://www.w3.org/2000/svg" xmlns:xlink="http://www.w3.org/1999/xlink">
	<desc>
			Created with Pixso.
	</desc>
	<defs/>
	<path id="Vector" d="M21.38 72.32L103.4 72.32C104.13 74.85 104.93 77.39 105.59 79.92C106.06 81.72 107.09 82.61 108.93 82.45C110.55 82.31 112.31 82.95 114.04 81.33L114.04 72.89C117.99 71.35 118.73 70.25 118.73 66.22C118.73 59.62 118.73 53.01 118.73 46.39C118.73 45.48 118.63 44.56 118.57 43.33C124.62 40.18 125.66 34.72 122.98 28.94C120.29 23.04 114.89 21.48 108.58 22.7C108.28 18.81 108.16 15.06 107.64 11.36C107.14 7.75 105.48 4.67 102.27 2.71C99.82 1.2 97 0.45 94.14 0.54C86.71 0.68 79.27 0.65 71.84 0.54C68.41 0.5 65.45 1.39 63.08 3.95M62.25 3.96C60.39 1.36 57.66 0.65 54.74 0.62C46.68 0.53 38.61 0.33 30.56 0.66C22.96 0.98 17.49 5.61 17.21 14.09C17.11 16.99 16.8 19.88 16.58 22.95C13.42 21.94 10.01 22.15 6.99 23.55C4.08 24.89 2.3 27.18 1.16 30.1C-0.65 34.75 1.46 40.18 6.37 43.1L6.37 67.45C6.37 70.64 7.29 71.8 10.75 72.61L10.75 79.05C10.75 81.76 11.41 82.43 14.08 82.43C17.57 82.45 18.38 83.18 19.71 77.99L20.96 73.14M106.44 22.11C106.17 19.15 105.67 16.2 105.66 13.25C105.66 8.42 101.23 2.81 95.6 3.03C87.2 3.37 78.79 3.12 70.38 3.12C66.39 3.12 63.91 5.63 63.91 9.66L63.91 39.13C70.38 38.65 76.63 37.87 82.88 37.82C89.07 37.79 95.25 38.56 101.44 38.97C101.44 35.82 101.24 32.85 101.51 29.92C101.69 27.94 103.03 26.37 104.55 25.05C105.23 24.39 105.86 23.68 106.44 22.94M61.41 38.56C61.41 28.72 61.41 18.87 61.41 9.03C61.39 7.47 60.76 5.98 59.67 4.88C58.58 3.78 57.11 3.14 55.57 3.12C46.89 3.1 38.2 3.03 29.51 3.14C24.86 3.21 19.95 6.87 19.69 12.4C19.52 16.2 19.05 20 18.71 23.85C22.88 26.17 24.21 29.85 23.9 34.35C23.8 35.89 23.9 37.44 23.9 38.99M47.65 40.04C39.73 39.85 31.85 40.34 23.99 42.15L23.99 54.06L61.2 54.06L61.2 41.91C58.96 41.53 56.44 41.06 53.91 40.69C51.9 40.4 49.88 40.27 47.86 40.04M100.19 41.52C97.48 41.17 94.77 40.67 92.06 40.5C87.47 40.23 82.88 40.11 78.3 40.08C76.49 40.08 74.68 40.45 72.88 40.68C69.96 41.06 67.04 41.46 64.02 41.87L64.02 54.18L101.23 54.18L101.23 42.36M6.79 26.33C3.12 28.74 1.92 33.92 3.9 37.5C4.39 38.37 5.02 39.15 5.77 39.8C6.52 40.47 7.44 40.92 8.46 41.58L8.46 47.21C8.46 53.68 8.46 60.16 8.46 66.63C8.46 69.37 9.29 70.21 12 70.21L21.38 70.21L21.38 67.26C21.38 55.73 21.27 44.19 21.44 32.66C21.5 28.61 18.64 25.99 15.74 25.09C14.41 24.64 12.99 24.48 11.6 24.62C10.2 24.76 8.84 25.2 7.62 25.9M60.99 39.41C56.97 38.92 52.94 38.14 48.9 38C43.83 37.81 38.75 37.88 33.69 38.21C30.68 38.4 27.71 39.27 24.72 39.83M111.45 72.32L105.88 72.32C106.67 75.14 107.39 77.66 108.11 80.23L111.86 80.23L111.86 73.17M13.04 73.17L13.04 80.23L16.46 80.23C17.43 77.89 18.48 75.39 18.47 72.32L13.47 72.32M109.99 32.66C109.85 34 109.71 35.35 109.57 36.7L109.15 36.67L109.15 34.99M15.34 34.13L15.23 35.82L16.35 36.78L15.13 36.88M14.71 33.5L13.12 30.79L12.47 31.21L14.09 33.28M111.86 31.39L112.32 30.7L112.02 30.49L111.45 30.97M110.82 31.6C110.68 31.96 110.55 32.31 110.4 32.66M110.4 32.02C110.32 32.16 110.26 32.3 110.21 32.45C110.21 32.5 110.34 32.59 110.4 32.65M24.51 56.29C24.3 56.5 23.98 56.68 23.91 56.93C23.85 57.35 23.84 57.77 23.89 58.19L23.89 70.11L101.02 70.11L101.02 56.29L24.72 56.29M110.61 24.64C109.02 25.48 107.35 26.22 105.84 27.2C104.24 28.24 103.56 29.98 103.55 31.81C103.5 44.4 103.52 56.99 103.55 69.58C103.55 69.72 103.68 69.86 103.85 70.21C107.29 70.21 110.84 70.28 114.38 70.19C116 70.14 116.49 69.01 116.47 67.47C116.43 58.89 116.47 50.31 116.47 41.68C117.07 41.17 117.7 40.7 118.35 40.26C121.95 38.07 123.13 32.94 120.85 29.49C118.46 25.87 115.1 24.31 110.85 24.64" stroke="#DC5601" stroke-opacity="1.000000" stroke-width="1.000000" stroke-linejoin="round" stroke-linecap="round"/>
</svg>
